<?xml version="1.0" encoding="UTF-8" standalone="no"?>
<!-- Created with Inkscape (http://www.inkscape.org/) -->

<svg
   width="93.707031mm"
   height="89.75943mm"
   viewBox="0 0 93.707031 89.75943"
   version="1.1"
   id="svg5"
   xmlns:inkscape="http://www.inkscape.org/namespaces/inkscape"
   xmlns:sodipodi="http://sodipodi.sourceforge.net/DTD/sodipodi-0.dtd"
   xmlns="http://www.w3.org/2000/svg"
   xmlns:svg="http://www.w3.org/2000/svg">
  <sodipodi:namedview
     id="namedview7"
     pagecolor="#ffffff"
     bordercolor="#666666"
     borderopacity="1.0"
     inkscape:showpageshadow="2"
     inkscape:pageopacity="0.0"
     inkscape:pagecheckerboard="0"
     inkscape:deskcolor="#d1d1d1"
     inkscape:document-units="mm"
     showgrid="false" />
  <defs
     id="defs2" />
  <g
     inkscape:label="Layer 1"
     inkscape:groupmode="layer"
     id="layer1"
     transform="translate(-69.545793,-76.981809)">
    <ellipse
       style="fill:#fff6d5;stroke:#000000;stroke-width:2;stroke-opacity:0.584971"
       id="path111"
       cx="116.39931"
       cy="121.86153"
       rx="45.853512"
       ry="43.879715" />
    <path
       style="fill:#ffeeaa;stroke:#000000;stroke-width:2;stroke-opacity:0.584971"
       id="path117"
       transform="rotate(-9.5379598)"
       sodipodi:type="arc"
       sodipodi:cx="114.03123"
       sodipodi:cy="141.16553"
       sodipodi:rx="14.240757"
       sodipodi:ry="4.9224586"
       sodipodi:start="0.19542506"
       sodipodi:end="5.7107747"
       sodipodi:arc-type="slice"
       d="m 128.00091,142.12139 a 14.240757,4.9224586 0 0 1 -14.01904,3.96657 14.240757,4.9224586 0 0 1 -13.93916,-4.00007 14.240757,4.9224586 0 0 1 8.70036,-5.49285 14.240757,4.9224586 0 0 1 17.2589,1.90419 l -11.97074,2.6663 z" />
    <path
       style="fill:#ffeeaa;stroke:#000000;stroke-width:2;stroke-opacity:0.584971"
       id="path117-3"
       transform="rotate(-93.816348)"
       sodipodi:type="arc"
       sodipodi:cx="-109.51604"
       sodipodi:cy="109.3046"
       sodipodi:rx="17.730301"
       sodipodi:ry="4.9224586"
       sodipodi:start="0.30704852"
       sodipodi:end="5.9582997"
       sodipodi:arc-type="slice"
       d="m -92.614986,110.7924 a 17.730301,4.9224586 0 0 1 -19.534244,3.38007 17.730301,4.9224586 0 0 1 -15.0964,-4.82397 17.730301,4.9224586 0 0 1 14.78409,-4.89795 17.730301,4.9224586 0 0 1 19.748283,3.2828 l -16.802783,1.57125 z" />
    <path
       style="fill:#ffeeaa;stroke:#000000;stroke-width:2;stroke-opacity:0.584971"
       id="path117-3-6"
       transform="rotate(-144.33555)"
       sodipodi:type="arc"
       sodipodi:cx="-148.9481"
       sodipodi:cy="-34.853195"
       sodipodi:rx="14.126293"
       sodipodi:ry="3.73036"
       sodipodi:start="0.51940833"
       sodipodi:end="5.9383806"
       sodipodi:arc-type="slice"
       d="m -136.68489,-33.001569 a 14.126293,3.73036 0 0 1 -16.48307,1.708404 14.126293,3.73036 0 0 1 -9.85264,-3.885284 14.126293,3.73036 0 0 1 12.25874,-3.37423 14.126293,3.73036 0 0 1 15.1086,2.438574 l -13.29484,1.26091 z" />
    <path
       style="fill:#ffeeaa;stroke:#000000;stroke-width:2;stroke-opacity:0.584971"
       id="path117-3-6-7"
       transform="rotate(138.86541)"
       sodipodi:type="arc"
       sodipodi:cx="12.835673"
       sodipodi:cy="-170.89215"
       sodipodi:rx="14.126293"
       sodipodi:ry="4.54917"
       sodipodi:start="0.31244911"
       sodipodi:end="5.9383806"
       sodipodi:arc-type="slice"
       d="m 26.278022,-169.49378 a 14.126293,4.54917 0 0 1 -15.527311,3.10098 14.126293,4.54917 0 0 1 -12.0394823,-4.42576 14.126293,4.54917 0 0 1 11.5885933,-4.54886 14.126293,4.54917 0 0 1 15.830692,2.93759 l -13.294841,1.53768 z" />
    <path
       style="fill:#ffeeaa;stroke:#000000;stroke-width:2;stroke-opacity:0.584971"
       id="path117-3-6-7-5"
       transform="rotate(50.319024)"
       sodipodi:type="arc"
       sodipodi:cx="188.50006"
       sodipodi:cy="-7.9979215"
       sodipodi:rx="15.428659"
       sodipodi:ry="4.54917"
       sodipodi:start="0.31244911"
       sodipodi:end="5.9383806"
       sodipodi:arc-type="slice"
       d="m 203.18172,-6.5995517 a 15.428659,4.54917 0 0 1 -16.95884,3.1009776 15.428659,4.54917 0 0 1 -13.14946,-4.425755 15.428659,4.54917 0 0 1 12.657,-4.5488639 15.428659,4.54917 0 0 1 17.29019,2.9375934 l -14.52055,1.5376781 z" />
  </g>
</svg>
